<svg width="699" height="257" viewBox="0 0 699 257" fill="none" xmlns="http://www.w3.org/2000/svg">
<rect width="699" height="257" fill="#E5E5E5"/>
<g clip-path="url(#clip0_0_1)">
<rect width="699" height="257" fill="white"/>
<g filter="url(#filter0_d_0_1)">
<path d="M79 90L87.6603 75H70.3397L79 90ZM77.5 48V76.5H80.5V48H77.5Z" fill="#82B0D2"/>
</g>
<g filter="url(#filter1_d_0_1)">
<path d="M31 25C31 16.7157 37.7157 10 46 10H112C120.284 10 127 16.7157 127 25V33C127 41.2843 120.284 48 112 48H46C37.7157 48 31 41.2843 31 33V25Z" fill="#8ECFC9"/>
<path d="M59.944 23.312H54.648V22.048H59.944V23.312ZM59.944 25.424H54.648V24.144H59.944V25.424ZM61.08 21.152H53.56V26.336H61.08V21.152ZM52.392 27.584L50.776 28.08V24.928H52.536V23.824H50.776V20.64H49.672V23.824H47.704V24.928H49.672V28.432C48.856 28.688 48.12 28.912 47.528 29.056L47.816 30.208C48.392 30.032 49.016 29.84 49.672 29.616V33.728C49.672 33.968 49.592 34.032 49.4 34.032C49.224 34.032 48.584 34.032 47.896 34.016C48.056 34.352 48.2 34.832 48.248 35.12C49.256 35.136 49.864 35.088 50.232 34.896C50.632 34.704 50.776 34.4 50.776 33.744V29.264C51.368 29.056 51.96 28.88 52.536 28.672L52.392 27.584ZM57.864 31.328H61.176V30.352H57.864V28.48H61.976V27.472H52.84V28.48H56.744V33.536C55.832 33.152 55.112 32.416 54.664 31.056C54.792 30.528 54.888 29.952 54.968 29.36L53.88 29.232C53.624 31.6 52.92 33.392 51.496 34.512C51.752 34.672 52.2 35.04 52.392 35.232C53.224 34.48 53.864 33.504 54.296 32.304C55.336 34.544 57.016 34.976 59.32 34.976H62.104C62.152 34.672 62.296 34.176 62.456 33.92C61.912 33.936 59.752 33.936 59.368 33.936C58.84 33.936 58.328 33.904 57.864 33.84V31.328ZM77.976 22.688H71.56V20.592H70.376V22.688H64.04V23.84H77.976V22.688ZM72.888 24.992C74.408 26.048 76.232 27.584 77.08 28.624L78.12 27.808C77.208 26.752 75.336 25.28 73.832 24.272L72.888 24.992ZM68.12 24.336C67.144 25.68 65.48 27.008 63.912 27.84C64.216 28.048 64.664 28.528 64.888 28.784C66.424 27.824 68.216 26.32 69.32 24.8L68.12 24.336ZM73.304 27.072C72.776 28.512 72.008 29.696 71.032 30.672C70.056 29.68 69.288 28.512 68.76 27.152L67.624 27.504C68.248 29.056 69.08 30.368 70.12 31.472C68.456 32.768 66.28 33.616 63.688 34.16C63.944 34.432 64.328 34.992 64.44 35.28C67.032 34.624 69.24 33.696 71 32.304C72.696 33.728 74.888 34.704 77.592 35.216C77.752 34.896 78.104 34.352 78.376 34.096C75.736 33.664 73.576 32.784 71.928 31.472C73.032 30.384 73.912 29.056 74.536 27.424L73.304 27.072ZM83.736 20.624C82.76 23.104 81.144 25.552 79.4 27.104C79.656 27.392 80.024 28 80.136 28.288C80.792 27.664 81.432 26.928 82.024 26.128V35.232H83.192V24.368C83.848 23.28 84.408 22.144 84.888 20.976L83.736 20.624ZM94.296 28.56V27.408H89.784V22.976C91.224 22.688 92.568 22.352 93.656 22L92.776 21.008C90.824 21.712 87.368 22.352 84.408 22.736C84.536 23.008 84.728 23.456 84.776 23.744C85.992 23.6 87.32 23.408 88.6 23.184V27.408H83.88V28.56H88.6V33.472H84.488V34.624H94.056V33.472H89.784V28.56H94.296ZM103.064 29.488C103.176 29.04 103.288 28.528 103.368 28L102.136 27.904C102.072 28.48 101.96 29.008 101.832 29.488H97.064V30.528H101.464C100.552 32.576 98.776 33.648 95.96 34.192C96.184 34.432 96.488 34.928 96.616 35.2C99.752 34.448 101.72 33.104 102.728 30.528H107.576C107.304 32.624 106.984 33.6 106.616 33.904C106.44 34.032 106.248 34.048 105.928 34.048C105.528 34.048 104.52 34.032 103.512 33.936C103.72 34.24 103.864 34.672 103.88 34.992C104.824 35.056 105.784 35.056 106.248 35.04C106.84 35.008 107.192 34.928 107.544 34.608C108.088 34.112 108.456 32.912 108.792 30.016C108.84 29.856 108.856 29.488 108.856 29.488H103.064ZM100.424 23.28H106.888C105.944 24.224 104.632 24.992 103.128 25.6C101.896 25.072 100.888 24.384 100.184 23.504L100.424 23.28ZM108.008 22.192L107.8 22.256H101.352C101.736 21.792 102.072 21.312 102.376 20.848L101.128 20.592C100.312 21.984 98.728 23.632 96.488 24.768C96.744 24.96 97.064 25.376 97.224 25.648C98.04 25.184 98.776 24.704 99.416 24.176C100.072 24.928 100.872 25.552 101.8 26.064C99.912 26.672 97.816 27.056 95.784 27.248C95.976 27.52 96.184 27.984 96.264 28.288C98.584 28 100.984 27.52 103.112 26.688C104.968 27.456 107.192 27.888 109.64 28.096C109.784 27.76 110.056 27.296 110.296 27.024C108.168 26.896 106.184 26.608 104.52 26.096C106.28 25.232 107.768 24.128 108.728 22.688L108.008 22.192Z" fill="black"/>
</g>
<g filter="url(#filter2_d_0_1)">
<path d="M0 207C0 198.716 6.71573 192 15 192H145C153.284 192 160 198.716 160 207V215C160 223.284 153.284 230 145 230H15C6.71573 230 0 223.284 0 215V207Z" fill="#8ECFC9"/>
<path d="M20.432 215.952C19.616 215.952 19.472 215.84 19.472 215.248V209.488H22.944C22.816 211.424 22.656 212.192 22.48 212.432C22.352 212.56 22.224 212.576 22.016 212.576C21.776 212.576 21.232 212.576 20.656 212.512C20.8 212.8 20.912 213.216 20.944 213.536C21.584 213.584 22.192 213.568 22.512 213.552C22.912 213.504 23.184 213.408 23.424 213.136C23.792 212.736 23.936 211.664 24.096 208.912C24.112 208.768 24.112 208.432 24.112 208.432H18.32V215.248C18.32 216.64 18.8 216.992 20.336 216.992H23.296C24.704 216.992 25.056 216.384 25.2 214.176C24.88 214.112 24.416 213.92 24.144 213.744C24.064 215.616 23.952 215.952 23.216 215.952H20.432ZM21.04 202.64C20.192 204.704 18.512 206.896 16.496 208.336C16.752 208.528 17.168 208.944 17.36 209.168C18.928 207.952 20.288 206.352 21.296 204.624C22.56 205.984 23.936 207.632 24.656 208.704L25.504 207.92C24.736 206.784 23.136 205.008 21.824 203.664C21.936 203.424 22.048 203.216 22.144 202.976L21.04 202.64ZM27.408 204.48H26.272V213.296H27.408V204.48ZM29.376 202.864V215.648C29.376 215.936 29.248 216.032 28.96 216.048C28.656 216.064 27.648 216.08 26.528 216.032C26.704 216.352 26.88 216.864 26.944 217.168C28.432 217.184 29.312 217.152 29.824 216.96C30.32 216.768 30.544 216.448 30.544 215.648V202.864H29.376ZM42.592 204.832H44.96V205.984H42.592V204.832ZM44.96 208.112H42.592V206.928H44.96V208.112ZM41.44 208.112H38.064V209.072H41.44V210.256H37.984V211.168H41.44V212.432H37.248V213.408H41.44V215.104H42.592V213.408H46.96V212.432H42.592V211.168H46.272V210.256H42.592V209.072H46.112V206.928H47.312V205.984H46.112V203.888H42.592V202.736H41.44V203.888H38.176V204.832H41.44V205.984H37.04V206.928H41.44V208.112ZM36.736 208.128L36.512 208.16H34.864C35.6 206.64 36.384 205.024 36.896 203.808L36.08 203.568L35.888 203.632H32.72V204.688H35.296C34.656 206.096 33.728 208.032 32.928 209.536L34.016 209.84L34.336 209.216H36.192C36 210.624 35.696 211.84 35.28 212.864C34.848 212.224 34.496 211.44 34.208 210.48L33.28 210.832C33.68 212.128 34.176 213.152 34.768 213.952C34.192 215.024 33.456 215.84 32.592 216.416C32.864 216.576 33.312 217.008 33.488 217.248C34.304 216.672 35.008 215.888 35.584 214.864C37.264 216.416 39.568 216.8 42.464 216.8H46.928C47.008 216.448 47.232 215.92 47.424 215.632C46.592 215.648 43.152 215.648 42.496 215.648C39.84 215.648 37.664 215.312 36.112 213.84C36.736 212.384 37.184 210.544 37.424 208.304L36.736 208.128ZM54.496 208.688C55.44 209.36 56.576 210.32 57.328 211.056C56.352 211.808 55.264 212.464 54.16 212.944C54.432 213.152 54.768 213.536 54.912 213.808C57.728 212.464 60.272 210.24 61.792 207.712L60.752 207.296C60.128 208.368 59.248 209.408 58.224 210.32C57.84 209.952 57.328 209.52 56.8 209.088C57.536 208.256 58.416 207.12 59.12 206.144L59.056 206.112H63.264V205.024H59.408V202.656H58.24V205.024H54.256V206.112H57.68C57.216 206.896 56.576 207.792 56.016 208.496C55.744 208.288 55.456 208.08 55.2 207.904L54.496 208.688ZM54.416 211.28C54.112 210.816 52.816 208.944 52.336 208.352V207.136H54.208V206.032H52.336V202.608H51.216V206.032H48.88V207.136H51.104C50.608 209.328 49.584 211.824 48.576 213.168C48.784 213.44 49.072 213.904 49.2 214.224C49.952 213.184 50.672 211.504 51.216 209.76V217.2H52.336V209.76C52.848 210.592 53.472 211.648 53.744 212.192L54.416 211.28ZM62.064 210.192C60.448 212.96 57.376 215.12 53.744 216.256C54.016 216.512 54.304 216.912 54.464 217.2C56.432 216.528 58.224 215.6 59.728 214.432C60.768 215.376 61.888 216.528 62.464 217.264L63.424 216.528C62.784 215.776 61.6 214.64 60.576 213.728C61.6 212.832 62.464 211.808 63.136 210.672L62.064 210.192ZM75.52 208.336C76.864 210.128 78.032 212.608 78.4 214.272L79.568 213.712C79.184 212.032 77.984 209.616 76.56 207.808L75.52 208.336ZM66.24 208.336C66.032 210.384 65.504 212.704 64.432 214.096L65.504 214.752C66.64 213.216 67.136 210.704 67.392 208.56L66.24 208.336ZM69.024 203.6C70.944 204.272 73.248 205.456 74.496 206.368L75.248 205.328C73.984 204.496 71.68 203.328 69.776 202.688L69.024 203.6ZM68.912 207.04V215.024C68.912 216.576 69.376 217.008 71.072 217.008H74.176C75.904 217.008 76.288 216.128 76.448 213.12C76.112 213.04 75.616 212.816 75.344 212.576C75.216 215.344 75.072 215.92 74.112 215.92H71.168C70.288 215.92 70.112 215.776 70.112 215.04V207.04H68.912ZM94.224 204.272C93.728 203.856 92.704 203.248 91.92 202.912L91.248 203.568C92.032 203.952 93.04 204.576 93.536 205.008L94.224 204.272ZM82.992 211.488C84.224 210.064 85.408 208.32 86.432 206.56L85.44 205.952C85.136 206.544 84.8 207.136 84.432 207.728L82.432 207.92C83.376 206.56 84.288 204.832 84.992 203.184L83.872 202.672C83.232 204.576 82.08 206.608 81.744 207.136C81.392 207.68 81.12 208.048 80.832 208.112C80.96 208.432 81.152 208.992 81.2 209.248C81.44 209.12 81.824 209.024 83.744 208.768C83.056 209.808 82.432 210.608 82.128 210.928C81.648 211.52 81.28 211.904 80.944 211.968C81.088 212.288 81.248 212.816 81.312 213.056C81.648 212.864 82.176 212.72 86.16 211.904C86.128 211.68 86.128 211.216 86.16 210.912L82.992 211.488ZM86.224 213.68C84.256 214.208 82.24 214.784 80.928 215.088L81.168 216.24L86.4 214.688L86.224 213.68ZM94.144 210.416C93.504 211.424 92.64 212.336 91.632 213.152C91.376 212.288 91.152 211.264 90.976 210.128L95.04 209.36L94.832 208.32L90.848 209.072C90.768 208.4 90.704 207.712 90.64 206.976L94.592 206.368L94.4 205.328L90.576 205.888C90.528 204.832 90.512 203.744 90.512 202.592H89.344C89.36 203.792 89.392 204.944 89.456 206.064L86.944 206.432L87.152 207.504L89.504 207.136C89.552 207.872 89.632 208.592 89.712 209.28L86.608 209.856L86.8 210.928L89.856 210.336C90.048 211.664 90.304 212.848 90.64 213.856C89.28 214.752 87.744 215.472 86.112 215.968C86.384 216.24 86.704 216.64 86.848 216.944C88.336 216.432 89.776 215.728 91.04 214.896C91.696 216.336 92.544 217.184 93.68 217.184C94.768 217.184 95.136 216.656 95.344 214.864C95.072 214.768 94.72 214.512 94.464 214.24C94.4 215.648 94.224 216.032 93.792 216.032C93.104 216.032 92.496 215.376 92 214.208C93.264 213.264 94.336 212.128 95.136 210.88L94.144 210.416ZM109.296 207.248H104.496V204.32H109.296V207.248ZM110.464 203.28H103.408V208.272H110.464V203.28ZM102.768 211.376C102.448 211.008 101.088 209.6 100.592 209.184V208.208H102.592V207.088H100.592V204.384C101.344 204.208 102.048 203.984 102.624 203.744L101.792 202.848C100.624 203.376 98.528 203.84 96.736 204.128C96.88 204.4 97.04 204.784 97.104 205.056C97.84 204.944 98.656 204.816 99.44 204.656V207.088H96.832V208.208H99.28C98.64 210.032 97.536 212.096 96.528 213.216C96.72 213.504 97.008 213.968 97.12 214.304C97.936 213.328 98.784 211.728 99.44 210.112V217.184H100.592V210.336C101.136 210.992 101.792 211.872 102.048 212.32L102.768 211.376ZM107.472 215.728V213.664H110.656V212.624H107.472V210.72H111.008V209.664H102.816V210.72H106.288V212.624H103.184V213.664H106.288V215.728H102.096V216.8H111.36V215.728H107.472ZM117.664 209.568L115.968 210.096V207.072H117.6V205.968H115.968V202.624H114.832V205.968H112.832V207.072H114.832V210.448C113.984 210.688 113.216 210.928 112.592 211.088L112.896 212.24L114.832 211.616V215.792C114.832 216.016 114.752 216.08 114.544 216.08C114.368 216.08 113.744 216.08 113.056 216.064C113.216 216.4 113.36 216.896 113.408 217.216C114.432 217.216 115.04 217.168 115.408 216.976C115.824 216.768 115.968 216.448 115.968 215.792V211.248C116.592 211.056 117.216 210.848 117.824 210.64L117.664 209.568ZM121.568 206.032C121.584 204.96 121.584 203.824 121.568 202.592L120.4 202.608C120.432 203.84 120.448 204.96 120.432 206.032H117.984V207.12H120.4C120.368 208.208 120.288 209.2 120.144 210.112C119.632 209.808 119.12 209.536 118.64 209.28L117.984 210.096C118.592 210.432 119.28 210.832 119.936 211.232C119.408 213.472 118.384 215.136 116.416 216.304C116.688 216.528 117.12 217.04 117.264 217.28C119.28 215.92 120.368 214.192 120.96 211.872C121.808 212.432 122.576 212.96 123.088 213.392L123.792 212.448C123.168 211.968 122.208 211.328 121.184 210.72C121.376 209.648 121.488 208.448 121.536 207.12H123.968C123.904 213.456 123.776 217.216 125.84 217.216C126.832 217.216 127.216 216.624 127.344 214.496C127.056 214.384 126.624 214.176 126.368 213.952C126.304 215.552 126.176 216.08 125.904 216.08C124.976 216.08 125.024 212.624 125.184 206.032H121.568ZM142.768 203.584H134.96V204.704H142.768V203.584ZM132.288 202.608C131.488 203.744 129.952 205.184 128.624 206.08C128.832 206.304 129.152 206.768 129.328 207.024C130.752 206.016 132.384 204.464 133.424 203.056L132.288 202.608ZM132.944 206.016C131.84 207.824 130.112 209.664 128.464 210.832C128.704 211.072 129.12 211.584 129.296 211.824C129.888 211.36 130.496 210.784 131.104 210.16V217.264H132.288V208.848C132.944 208.064 133.552 207.248 134.048 206.432L132.944 206.016ZM143.232 207.952H134.272V209.088H139.616V215.68C139.616 215.952 139.52 216.016 139.216 216.032C138.912 216.048 137.856 216.048 136.72 216.016C136.896 216.352 137.056 216.848 137.104 217.168C138.672 217.168 139.568 217.168 140.112 216.992C140.64 216.8 140.816 216.432 140.816 215.696V209.088H143.232V207.952Z" fill="black"/>
</g>
<g filter="url(#filter3_d_0_1)">
<path d="M186 207C186 198.716 192.716 192 201 192H315C323.284 192 330 198.716 330 207V215C330 223.284 323.284 230 315 230H201C192.716 230 186 223.284 186 215V207Z" fill="#8ECFC9"/>
<path d="M206.736 202.624C205.76 205.104 204.144 207.552 202.4 209.104C202.656 209.392 203.024 210 203.136 210.288C203.792 209.664 204.432 208.928 205.024 208.128V217.232H206.192V206.368C206.848 205.28 207.408 204.144 207.888 202.976L206.736 202.624ZM217.296 210.56V209.408H212.784V204.976C214.224 204.688 215.568 204.352 216.656 204L215.776 203.008C213.824 203.712 210.368 204.352 207.408 204.736C207.536 205.008 207.728 205.456 207.776 205.744C208.992 205.6 210.32 205.408 211.6 205.184V209.408H206.88V210.56H211.6V215.472H207.488V216.624H217.056V215.472H212.784V210.56H217.296ZM226.064 211.488C226.176 211.04 226.288 210.528 226.368 210L225.136 209.904C225.072 210.48 224.96 211.008 224.832 211.488H220.064V212.528H224.464C223.552 214.576 221.776 215.648 218.96 216.192C219.184 216.432 219.488 216.928 219.616 217.2C222.752 216.448 224.72 215.104 225.728 212.528H230.576C230.304 214.624 229.984 215.6 229.616 215.904C229.44 216.032 229.248 216.048 228.928 216.048C228.528 216.048 227.52 216.032 226.512 215.936C226.72 216.24 226.864 216.672 226.88 216.992C227.824 217.056 228.784 217.056 229.248 217.04C229.84 217.008 230.192 216.928 230.544 216.608C231.088 216.112 231.456 214.912 231.792 212.016C231.84 211.856 231.856 211.488 231.856 211.488H226.064ZM223.424 205.28H229.888C228.944 206.224 227.632 206.992 226.128 207.6C224.896 207.072 223.888 206.384 223.184 205.504L223.424 205.28ZM231.008 204.192L230.8 204.256H224.352C224.736 203.792 225.072 203.312 225.376 202.848L224.128 202.592C223.312 203.984 221.728 205.632 219.488 206.768C219.744 206.96 220.064 207.376 220.224 207.648C221.04 207.184 221.776 206.704 222.416 206.176C223.072 206.928 223.872 207.552 224.8 208.064C222.912 208.672 220.816 209.056 218.784 209.248C218.976 209.52 219.184 209.984 219.264 210.288C221.584 210 223.984 209.52 226.112 208.688C227.968 209.456 230.192 209.888 232.64 210.096C232.784 209.76 233.056 209.296 233.296 209.024C231.168 208.896 229.184 208.608 227.52 208.096C229.28 207.232 230.768 206.128 231.728 204.688L231.008 204.192ZM238.448 206.576V207.648H241.648C240.784 209.056 239.552 210.128 237.968 210.864C238.224 211.088 238.624 211.568 238.768 211.808C240.608 210.848 242 209.488 242.96 207.648H244.736C245.616 209.296 247.12 210.816 248.672 211.584C248.864 211.296 249.232 210.864 249.488 210.656C248.112 210.08 246.784 208.928 245.952 207.648H249.088V206.576H243.456C243.712 205.936 243.92 205.264 244.096 204.528C245.68 204.32 247.168 204.048 248.32 203.68L247.392 202.768C245.52 203.376 241.968 203.744 238.992 203.92C239.136 204.192 239.264 204.64 239.312 204.928C240.448 204.864 241.648 204.784 242.848 204.656C242.672 205.344 242.464 205.984 242.208 206.576H238.448ZM238.672 204.416C238.128 203.856 237.008 203.184 236.112 202.768L235.424 203.616C236.336 204.064 237.44 204.8 237.968 205.344L238.672 204.416ZM238 208.544C237.424 208.048 236.272 207.424 235.328 207.04L234.656 207.904C235.616 208.336 236.768 209.008 237.328 209.52L238 208.544ZM236.08 217.024C236.784 215.6 237.568 213.744 238.16 212.16L237.216 211.504C236.56 213.2 235.648 215.168 235.008 216.336L236.08 217.024ZM240.4 211.392C240.064 212.64 239.408 214.048 238.416 214.864L239.28 215.536C240.368 214.608 240.976 213.072 241.376 211.712L240.4 211.392ZM242.384 215.904C242.384 216.096 242.352 216.144 242.128 216.16C241.904 216.176 241.216 216.176 240.416 216.144C240.56 216.464 240.72 216.896 240.768 217.2C241.84 217.2 242.528 217.2 242.944 217.024C243.376 216.848 243.488 216.512 243.488 215.92V209.728H242.384V215.904ZM244.192 212C244.704 213.072 245.136 214.48 245.28 215.424L246.24 215.056C246.096 214.128 245.632 212.736 245.104 211.664L244.192 212ZM246.176 211.616C247.104 212.832 248.08 214.496 248.464 215.584L249.456 215.072C249.056 213.968 248.08 212.352 247.088 211.168L246.176 211.616ZM257.84 205.616H254.304C254.32 204.704 254.336 203.776 254.336 202.832H253.168C253.168 203.776 253.168 204.704 253.152 205.616H250.912V206.784H253.12C252.992 210.784 252.512 214.32 250.528 216.416C250.816 216.592 251.248 216.976 251.424 217.232C253.584 214.896 254.128 211.072 254.272 206.784H256.688C256.576 212.912 256.432 215.088 256.064 215.536C255.952 215.76 255.792 215.808 255.536 215.792C255.248 215.792 254.56 215.792 253.824 215.728C254.032 216.064 254.144 216.576 254.176 216.928C254.88 216.976 255.616 216.976 256.048 216.912C256.528 216.864 256.816 216.72 257.104 216.304C257.6 215.616 257.712 213.296 257.84 206.224V205.616ZM260.272 214.672V205.744H263.376V214.672H260.272ZM259.152 204.592V216.976H260.272V215.808H263.376V216.864H264.56V204.592H259.152ZM271.536 214.96V212.304H274.544V211.216H271.536V209.312H270.384V211.216H267.328V212.304H270.384V215.104C268.976 215.28 267.696 215.44 266.688 215.552L266.88 216.736C268.992 216.432 272.112 216 275.088 215.568L275.056 214.496L271.536 214.96ZM271.904 206.048C272.32 206.544 272.768 207.12 273.168 207.696C271.888 207.76 270.624 207.808 269.488 207.856C269.936 206.912 270.4 205.728 270.8 204.72H275.024V203.664H266.864V204.72H269.472C269.168 205.712 268.72 206.96 268.288 207.904L266.832 207.968L266.928 209.104C268.752 208.992 271.328 208.864 273.84 208.688C274.064 209.056 274.24 209.392 274.384 209.68L275.312 209.12C274.864 208.144 273.744 206.656 272.784 205.552L271.904 206.048ZM276.848 204.528H275.712V213.328H276.848V204.528ZM279.472 203.056V215.616C279.472 215.92 279.376 216 279.088 216.016C278.784 216.016 277.776 216.032 276.736 215.984C276.896 216.336 277.072 216.896 277.136 217.216C278.432 217.216 279.376 217.2 279.904 217.008C280.432 216.8 280.624 216.432 280.624 215.616V203.056H279.472ZM288.016 203.216L287.824 203.264H283.664V217.2H284.8V204.352H287.328C286.976 205.424 286.464 206.816 285.968 207.968C287.2 209.216 287.536 210.304 287.536 211.168C287.536 211.648 287.44 212.064 287.184 212.24C287.024 212.336 286.848 212.384 286.64 212.384C286.384 212.4 286.048 212.4 285.664 212.368C285.856 212.688 285.968 213.168 285.984 213.488C286.368 213.504 286.784 213.504 287.136 213.472C287.456 213.424 287.76 213.328 288 213.152C288.48 212.832 288.672 212.128 288.672 211.264C288.672 210.288 288.384 209.12 287.152 207.808C287.712 206.56 288.336 205.024 288.848 203.728L288.016 203.216ZM291.936 202.624C291.92 208.064 292 213.648 287.488 216.384C287.824 216.608 288.208 216.976 288.4 217.264C290.816 215.712 292 213.392 292.576 210.688C293.168 212.944 294.32 215.696 296.64 217.232C296.816 216.928 297.184 216.576 297.504 216.336C293.952 214.096 293.232 208.992 292.992 207.504C293.12 205.92 293.12 204.256 293.136 202.624H291.936ZM305.072 207.984C304.8 209.264 304.432 210.416 303.952 211.424C303.216 210.864 302.048 210.096 301.056 209.52C301.328 209.024 301.584 208.512 301.824 207.984H305.072ZM299.008 204.528H301.744C301.216 206.864 300.112 209.488 298.416 211.104C298.656 211.296 299.04 211.664 299.248 211.888C299.696 211.456 300.112 210.96 300.48 210.416C301.504 211.04 302.688 211.84 303.424 212.448C302.384 214.224 300.992 215.52 299.392 216.368C299.664 216.56 300.112 217.008 300.288 217.264C303.232 215.568 305.536 212.32 306.384 207.12L305.648 206.864L305.456 206.896H302.256C302.56 206.112 302.8 205.312 302.992 204.528H306.912V203.44H299.008V204.528ZM308.688 204.448H307.52V213.136H308.688V204.448ZM311.408 202.928V215.68C311.408 215.968 311.28 216.064 310.992 216.08C310.688 216.08 309.712 216.096 308.64 216.064C308.8 216.384 308.976 216.912 309.04 217.232C310.496 217.232 311.36 217.2 311.872 217.024C312.368 216.816 312.576 216.464 312.576 215.664V202.928H311.408Z" fill="black"/>
</g>
<g filter="url(#filter4_d_0_1)">
<path d="M146.048 116.984L80.3314 90.2216C79.6085 89.9271 78.7992 89.9261 78.0755 90.2187L11.8756 116.981C9.3748 117.992 9.3748 121.533 11.8756 122.544L78.0755 149.306C78.7992 149.599 79.6084 149.598 80.3314 149.303L146.048 122.541C148.539 121.526 148.539 117.999 146.048 116.984Z" fill="#FFBE7A"/>
</g>
<path d="M59.496 110.688C60.44 111.36 61.576 112.32 62.328 113.056C61.352 113.808 60.264 114.464 59.16 114.944C59.432 115.152 59.768 115.536 59.912 115.808C62.728 114.464 65.272 112.24 66.792 109.712L65.752 109.296C65.128 110.368 64.248 111.408 63.224 112.32C62.84 111.952 62.328 111.52 61.8 111.088C62.536 110.256 63.416 109.12 64.12 108.144L64.056 108.112H68.264V107.024H64.408V104.656H63.24V107.024H59.256V108.112H62.68C62.216 108.896 61.576 109.792 61.016 110.496C60.744 110.288 60.456 110.08 60.2 109.904L59.496 110.688ZM59.416 113.28C59.112 112.816 57.816 110.944 57.336 110.352V109.136H59.208V108.032H57.336V104.608H56.216V108.032H53.88V109.136H56.104C55.608 111.328 54.584 113.824 53.576 115.168C53.784 115.44 54.072 115.904 54.2 116.224C54.952 115.184 55.672 113.504 56.216 111.76V119.2H57.336V111.76C57.848 112.592 58.472 113.648 58.744 114.192L59.416 113.28ZM67.064 112.192C65.448 114.96 62.376 117.12 58.744 118.256C59.016 118.512 59.304 118.912 59.464 119.2C61.432 118.528 63.224 117.6 64.728 116.432C65.768 117.376 66.888 118.528 67.464 119.264L68.424 118.528C67.784 117.776 66.6 116.64 65.576 115.728C66.6 114.832 67.464 113.808 68.136 112.672L67.064 112.192ZM80.52 110.336C81.864 112.128 83.032 114.608 83.4 116.272L84.568 115.712C84.184 114.032 82.984 111.616 81.56 109.808L80.52 110.336ZM71.24 110.336C71.032 112.384 70.504 114.704 69.432 116.096L70.504 116.752C71.64 115.216 72.136 112.704 72.392 110.56L71.24 110.336ZM74.024 105.6C75.944 106.272 78.248 107.456 79.496 108.368L80.248 107.328C78.984 106.496 76.68 105.328 74.776 104.688L74.024 105.6ZM73.912 109.04V117.024C73.912 118.576 74.376 119.008 76.072 119.008H79.176C80.904 119.008 81.288 118.128 81.448 115.12C81.112 115.04 80.616 114.816 80.344 114.576C80.216 117.344 80.072 117.92 79.112 117.92H76.168C75.288 117.92 75.112 117.776 75.112 117.04V109.04H73.912ZM99.224 106.272C98.728 105.856 97.704 105.248 96.92 104.912L96.248 105.568C97.032 105.952 98.04 106.576 98.536 107.008L99.224 106.272ZM87.992 113.488C89.224 112.064 90.408 110.32 91.432 108.56L90.44 107.952C90.136 108.544 89.8 109.136 89.432 109.728L87.432 109.92C88.376 108.56 89.288 106.832 89.992 105.184L88.872 104.672C88.232 106.576 87.08 108.608 86.744 109.136C86.392 109.68 86.12 110.048 85.832 110.112C85.96 110.432 86.152 110.992 86.2 111.248C86.44 111.12 86.824 111.024 88.744 110.768C88.056 111.808 87.432 112.608 87.128 112.928C86.648 113.52 86.28 113.904 85.944 113.968C86.088 114.288 86.248 114.816 86.312 115.056C86.648 114.864 87.176 114.72 91.16 113.904C91.128 113.68 91.128 113.216 91.16 112.912L87.992 113.488ZM91.224 115.68C89.256 116.208 87.24 116.784 85.928 117.088L86.168 118.24L91.4 116.688L91.224 115.68ZM99.144 112.416C98.504 113.424 97.64 114.336 96.632 115.152C96.376 114.288 96.152 113.264 95.976 112.128L100.04 111.36L99.832 110.32L95.848 111.072C95.768 110.4 95.704 109.712 95.64 108.976L99.592 108.368L99.4 107.328L95.576 107.888C95.528 106.832 95.512 105.744 95.512 104.592H94.344C94.36 105.792 94.392 106.944 94.456 108.064L91.944 108.432L92.152 109.504L94.504 109.136C94.552 109.872 94.632 110.592 94.712 111.28L91.608 111.856L91.8 112.928L94.856 112.336C95.048 113.664 95.304 114.848 95.64 115.856C94.28 116.752 92.744 117.472 91.112 117.968C91.384 118.24 91.704 118.64 91.848 118.944C93.336 118.432 94.776 117.728 96.04 116.896C96.696 118.336 97.544 119.184 98.68 119.184C99.768 119.184 100.136 118.656 100.344 116.864C100.072 116.768 99.72 116.512 99.464 116.24C99.4 117.648 99.224 118.032 98.792 118.032C98.104 118.032 97.496 117.376 97 116.208C98.264 115.264 99.336 114.128 100.136 112.88L99.144 112.416ZM66.296 125.248H61.496V122.32H66.296V125.248ZM67.464 121.28H60.408V126.272H67.464V121.28ZM59.768 129.376C59.448 129.008 58.088 127.6 57.592 127.184V126.208H59.592V125.088H57.592V122.384C58.344 122.208 59.048 121.984 59.624 121.744L58.792 120.848C57.624 121.376 55.528 121.84 53.736 122.128C53.88 122.4 54.04 122.784 54.104 123.056C54.84 122.944 55.656 122.816 56.44 122.656V125.088H53.832V126.208H56.28C55.64 128.032 54.536 130.096 53.528 131.216C53.72 131.504 54.008 131.968 54.12 132.304C54.936 131.328 55.784 129.728 56.44 128.112V135.184H57.592V128.336C58.136 128.992 58.792 129.872 59.048 130.32L59.768 129.376ZM64.472 133.728V131.664H67.656V130.624H64.472V128.72H68.008V127.664H59.816V128.72H63.288V130.624H60.184V131.664H63.288V133.728H59.096V134.8H68.36V133.728H64.472ZM74.664 133.6C72.936 133.6 72.584 133.376 72.584 132.368V128.144H80.936V128.928H82.152V121.616H70.536V122.784H80.936V126.976H72.584V124.352H71.384V132.352C71.384 134.32 72.184 134.768 74.744 134.768H80.728C83.336 134.768 83.864 133.904 84.168 130.976C83.816 130.912 83.288 130.72 82.968 130.496C82.744 133.072 82.488 133.6 80.744 133.6H74.664ZM92.456 124.16H93.576V122.944H96.2V124.16H97.32V122.944H100.072V121.92H97.32V120.64H96.2V121.92H93.576V120.64H92.456V121.92H89.784V122.944H92.456V124.16ZM88.92 126.832C88.344 126.384 87.272 125.744 86.424 125.328L85.72 126.16C86.584 126.608 87.656 127.28 88.184 127.76L88.92 126.832ZM87.096 134.864C87.88 133.44 88.808 131.536 89.496 129.92L88.568 129.168C87.8 130.912 86.76 132.928 86.04 134.112L87.096 134.864ZM86.504 121.776C87.336 122.288 88.376 123.04 88.888 123.552L89.656 122.672C89.112 122.176 88.056 121.472 87.24 120.992L86.504 121.776ZM94.088 127.088C94.12 126.64 94.12 126.144 94.136 125.648H95.96C95.96 126.144 95.944 126.64 95.928 127.088H94.088ZM100.168 125.648V124.64H89.704V125.648H93.144C93.144 126.144 93.128 126.64 93.112 127.088H90.12V135.168H91.272V128.144H93.032C92.856 129.968 92.424 131.392 91.352 132.4C91.592 132.528 91.992 132.896 92.152 133.072C92.808 132.368 93.272 131.552 93.56 130.576C93.88 130.976 94.184 131.424 94.344 131.744L95.032 131.072C94.808 130.64 94.28 130.032 93.816 129.52C93.896 129.104 93.96 128.624 94.008 128.144H95.848C95.672 130.128 95.224 131.696 94.152 132.816C94.392 132.96 94.824 133.264 94.968 133.424C95.656 132.64 96.12 131.696 96.408 130.592C96.872 131.28 97.272 132.016 97.496 132.528L98.296 131.904C98.024 131.216 97.304 130.144 96.664 129.344C96.728 128.96 96.776 128.56 96.808 128.144H98.6V134.016C98.6 134.224 98.536 134.272 98.312 134.288C98.12 134.304 97.416 134.304 96.632 134.288C96.76 134.528 96.904 134.848 96.968 135.104C98.072 135.104 98.76 135.104 99.16 134.96C99.576 134.8 99.704 134.576 99.704 134.016V127.088H96.888C96.904 126.64 96.92 126.144 96.936 125.648H100.168Z" fill="black"/>
<path d="M165.072 109.104H158.868V108.132H165.072V109.104ZM165.072 110.724H158.868V109.752H165.072V110.724ZM165.96 107.448H157.992V111.408H165.96V107.448ZM162.54 115.14H166.5V114.348H162.54V113.016H167.28V112.212H156.744V113.016H161.664V116.628C160.632 116.352 159.864 115.8 159.396 114.72C159.516 114.336 159.624 113.94 159.708 113.52L158.808 113.4C158.484 115.152 157.728 116.496 156.48 117.3C156.672 117.444 157.02 117.78 157.14 117.936C157.92 117.36 158.544 116.616 159.012 115.68C159.984 117.3 161.508 117.684 163.92 117.684H167.184C167.232 117.42 167.376 117.036 167.496 116.832C166.884 116.844 164.4 116.844 163.956 116.844C163.452 116.844 162.972 116.82 162.54 116.772V115.14Z" fill="black"/>
<g filter="url(#filter5_d_0_1)">
<path d="M189 120L174 111.34V128.66L189 120ZM147 121.5H175.5V118.5H147V121.5Z" fill="#FA7F6F"/>
</g>
<g filter="url(#filter6_d_0_1)">
<path d="M79 192L87.6603 177H70.3397L79 192ZM77.5 150V178.5H80.5V150H77.5Z" fill="#82B0D2"/>
</g>
<path d="M87.544 166.076H88.432V162.416C88.756 162.128 89.056 161.804 89.332 161.48H93.172V160.64H82.84V161.48H88.132C86.752 162.932 84.604 164.096 82.48 164.792C82.672 164.984 82.972 165.392 83.104 165.596C84.628 165.02 86.212 164.192 87.544 163.172V166.076ZM90.988 167.204V169.544H85.06V167.204H90.988ZM84.16 170.924H85.06V170.348H90.988V170.9H91.936V166.412H84.16V170.924ZM88.936 163.244C90.316 163.808 91.96 164.768 92.824 165.464L93.46 164.792C92.584 164.132 90.94 163.208 89.572 162.644L88.936 163.244Z" fill="black"/>
<g filter="url(#filter7_d_0_1)">
<path d="M325.048 116.984L259.331 90.2216C258.608 89.9271 257.799 89.9261 257.076 90.2187L190.876 116.981C188.375 117.992 188.375 121.533 190.876 122.544L257.076 149.306C257.799 149.599 258.608 149.598 259.331 149.303L325.048 122.541C327.539 121.526 327.539 117.999 325.048 116.984Z" fill="#FFBE7A"/>
</g>
<path d="M240.608 116.816V107.632H246.352V106.416H233.712V107.632H239.312V116.816H232.88V118H247.152V116.816H240.608ZM252.592 104.672C251.696 107.104 250.224 109.488 248.64 111.024C248.864 111.28 249.216 111.936 249.328 112.208C249.872 111.648 250.416 111.008 250.912 110.304V119.2H252.096V108.464C252.72 107.36 253.296 106.192 253.728 105.04L252.592 104.672ZM263.328 108.416V107.28H256.672C256.992 106.576 257.296 105.856 257.552 105.12L256.416 104.816C255.632 107.152 254.336 109.456 252.896 110.944C253.168 111.136 253.632 111.536 253.824 111.744C254.624 110.848 255.408 109.696 256.096 108.416H257.2V119.216H258.4V115.344H263.184V114.224H258.4V111.808H262.96V110.704H258.4V108.416H263.328ZM270.016 105.216L269.824 105.264H265.664V119.2H266.8V106.352H269.328C268.976 107.424 268.464 108.816 267.968 109.968C269.2 111.216 269.536 112.304 269.536 113.168C269.536 113.648 269.44 114.064 269.184 114.24C269.024 114.336 268.848 114.384 268.64 114.384C268.384 114.4 268.048 114.4 267.664 114.368C267.856 114.688 267.968 115.168 267.984 115.488C268.368 115.504 268.784 115.504 269.136 115.472C269.456 115.424 269.76 115.328 270 115.152C270.48 114.832 270.672 114.128 270.672 113.264C270.672 112.288 270.384 111.12 269.152 109.808C269.712 108.56 270.336 107.024 270.848 105.728L270.016 105.216ZM273.936 104.624C273.92 110.064 274 115.648 269.488 118.384C269.824 118.608 270.208 118.976 270.4 119.264C272.816 117.712 274 115.392 274.576 112.688C275.168 114.944 276.32 117.696 278.64 119.232C278.816 118.928 279.184 118.576 279.504 118.336C275.952 116.096 275.232 110.992 274.992 109.504C275.12 107.92 275.12 106.256 275.136 104.624H273.936ZM239.072 125.984C238.8 127.264 238.432 128.416 237.952 129.424C237.216 128.864 236.048 128.096 235.056 127.52C235.328 127.024 235.584 126.512 235.824 125.984H239.072ZM233.008 122.528H235.744C235.216 124.864 234.112 127.488 232.416 129.104C232.656 129.296 233.04 129.664 233.248 129.888C233.696 129.456 234.112 128.96 234.48 128.416C235.504 129.04 236.688 129.84 237.424 130.448C236.384 132.224 234.992 133.52 233.392 134.368C233.664 134.56 234.112 135.008 234.288 135.264C237.232 133.568 239.536 130.32 240.384 125.12L239.648 124.864L239.456 124.896H236.256C236.56 124.112 236.8 123.312 236.992 122.528H240.912V121.44H233.008V122.528ZM242.688 122.448H241.52V131.136H242.688V122.448ZM245.408 120.928V133.68C245.408 133.968 245.28 134.064 244.992 134.08C244.688 134.08 243.712 134.096 242.64 134.064C242.8 134.384 242.976 134.912 243.04 135.232C244.496 135.232 245.36 135.2 245.872 135.024C246.368 134.816 246.576 134.464 246.576 133.664V120.928H245.408ZM253.664 133.6C251.936 133.6 251.584 133.376 251.584 132.368V128.144H259.936V128.928H261.152V121.616H249.536V122.784H259.936V126.976H251.584V124.352H250.384V132.352C250.384 134.32 251.184 134.768 253.744 134.768H259.728C262.336 134.768 262.864 133.904 263.168 130.976C262.816 130.912 262.288 130.72 261.968 130.496C261.744 133.072 261.488 133.6 259.744 133.6H253.664ZM271.456 124.16H272.576V122.944H275.2V124.16H276.32V122.944H279.072V121.92H276.32V120.64H275.2V121.92H272.576V120.64H271.456V121.92H268.784V122.944H271.456V124.16ZM267.92 126.832C267.344 126.384 266.272 125.744 265.424 125.328L264.72 126.16C265.584 126.608 266.656 127.28 267.184 127.76L267.92 126.832ZM266.096 134.864C266.88 133.44 267.808 131.536 268.496 129.92L267.568 129.168C266.8 130.912 265.76 132.928 265.04 134.112L266.096 134.864ZM265.504 121.776C266.336 122.288 267.376 123.04 267.888 123.552L268.656 122.672C268.112 122.176 267.056 121.472 266.24 120.992L265.504 121.776ZM273.088 127.088C273.12 126.64 273.12 126.144 273.136 125.648H274.96C274.96 126.144 274.944 126.64 274.928 127.088H273.088ZM279.168 125.648V124.64H268.704V125.648H272.144C272.144 126.144 272.128 126.64 272.112 127.088H269.12V135.168H270.272V128.144H272.032C271.856 129.968 271.424 131.392 270.352 132.4C270.592 132.528 270.992 132.896 271.152 133.072C271.808 132.368 272.272 131.552 272.56 130.576C272.88 130.976 273.184 131.424 273.344 131.744L274.032 131.072C273.808 130.64 273.28 130.032 272.816 129.52C272.896 129.104 272.96 128.624 273.008 128.144H274.848C274.672 130.128 274.224 131.696 273.152 132.816C273.392 132.96 273.824 133.264 273.968 133.424C274.656 132.64 275.12 131.696 275.408 130.592C275.872 131.28 276.272 132.016 276.496 132.528L277.296 131.904C277.024 131.216 276.304 130.144 275.664 129.344C275.728 128.96 275.776 128.56 275.808 128.144H277.6V134.016C277.6 134.224 277.536 134.272 277.312 134.288C277.12 134.304 276.416 134.304 275.632 134.288C275.76 134.528 275.904 134.848 275.968 135.104C277.072 135.104 277.76 135.104 278.16 134.96C278.576 134.8 278.704 134.576 278.704 134.016V127.088H275.888C275.904 126.64 275.92 126.144 275.936 125.648H279.168Z" fill="black"/>
<g filter="url(#filter8_d_0_1)">
<path d="M518.048 116.984L452.331 90.2216C451.608 89.9271 450.799 89.9261 450.076 90.2187L383.876 116.981C381.375 117.992 381.375 121.533 383.876 122.544L450.076 149.306C450.799 149.599 451.608 149.598 452.331 149.303L518.048 122.541C520.539 121.526 520.539 117.999 518.048 116.984Z" fill="#FFBE7A"/>
</g>
<path d="M437.016 107.072H429.016V105.968H437.016V107.072ZM437.016 108.992H429.016V107.872H437.016V108.992ZM438.184 105.12H427.896V109.84H438.184V105.12ZM438.024 113.664C437.608 114.56 437.016 115.344 436.296 116.016C435.64 115.344 435.096 114.544 434.728 113.664H438.024ZM428.456 115.712H431.352V116.688C430.36 116.8 429.368 116.896 428.456 116.992V115.712ZM428.456 113.696H431.352V114.816H428.456V113.696ZM431.352 111.728V112.8H428.456V111.728H431.352ZM438.76 112.688L438.552 112.72H433.048V113.664H434.424L433.736 113.872C434.168 114.944 434.76 115.888 435.496 116.688C434.584 117.376 433.544 117.888 432.488 118.208V111.728H439.976V110.736H425.992V111.728H427.368V117.104C426.808 117.168 426.296 117.216 425.848 117.248L425.96 118.304C427.448 118.128 429.4 117.904 431.352 117.664V119.216H432.488V118.224C432.696 118.432 432.984 118.848 433.112 119.12C434.232 118.736 435.32 118.192 436.296 117.44C437.24 118.224 438.36 118.832 439.64 119.2C439.784 118.928 440.104 118.496 440.36 118.272C439.128 117.968 438.04 117.44 437.128 116.736C438.152 115.744 438.984 114.496 439.48 112.976L438.76 112.688ZM456.024 110.4V109.184H449.416C449.64 107.504 449.656 105.92 449.672 104.64H448.392C448.376 105.904 448.392 107.504 448.152 109.184H442.056V110.4H447.96C447.304 113.424 445.704 116.496 441.736 118.224C442.072 118.464 442.456 118.88 442.632 119.2C446.52 117.424 448.248 114.352 449.016 111.28C450.28 114.912 452.312 117.744 455.384 119.2C455.592 118.848 455.992 118.352 456.28 118.08C453.192 116.816 451.112 113.92 449.992 110.4H456.024ZM471.224 106.272C470.728 105.856 469.704 105.248 468.92 104.912L468.248 105.568C469.032 105.952 470.04 106.576 470.536 107.008L471.224 106.272ZM459.992 113.488C461.224 112.064 462.408 110.32 463.432 108.56L462.44 107.952C462.136 108.544 461.8 109.136 461.432 109.728L459.432 109.92C460.376 108.56 461.288 106.832 461.992 105.184L460.872 104.672C460.232 106.576 459.08 108.608 458.744 109.136C458.392 109.68 458.12 110.048 457.832 110.112C457.96 110.432 458.152 110.992 458.2 111.248C458.44 111.12 458.824 111.024 460.744 110.768C460.056 111.808 459.432 112.608 459.128 112.928C458.648 113.52 458.28 113.904 457.944 113.968C458.088 114.288 458.248 114.816 458.312 115.056C458.648 114.864 459.176 114.72 463.16 113.904C463.128 113.68 463.128 113.216 463.16 112.912L459.992 113.488ZM463.224 115.68C461.256 116.208 459.24 116.784 457.928 117.088L458.168 118.24L463.4 116.688L463.224 115.68ZM471.144 112.416C470.504 113.424 469.64 114.336 468.632 115.152C468.376 114.288 468.152 113.264 467.976 112.128L472.04 111.36L471.832 110.32L467.848 111.072C467.768 110.4 467.704 109.712 467.64 108.976L471.592 108.368L471.4 107.328L467.576 107.888C467.528 106.832 467.512 105.744 467.512 104.592H466.344C466.36 105.792 466.392 106.944 466.456 108.064L463.944 108.432L464.152 109.504L466.504 109.136C466.552 109.872 466.632 110.592 466.712 111.28L463.608 111.856L463.8 112.928L466.856 112.336C467.048 113.664 467.304 114.848 467.64 115.856C466.28 116.752 464.744 117.472 463.112 117.968C463.384 118.24 463.704 118.64 463.848 118.944C465.336 118.432 466.776 117.728 468.04 116.896C468.696 118.336 469.544 119.184 470.68 119.184C471.768 119.184 472.136 118.656 472.344 116.864C472.072 116.768 471.72 116.512 471.464 116.24C471.4 117.648 471.224 118.032 470.792 118.032C470.104 118.032 469.496 117.376 469 116.208C470.264 115.264 471.336 114.128 472.136 112.88L471.144 112.416ZM438.296 125.248H433.496V122.32H438.296V125.248ZM439.464 121.28H432.408V126.272H439.464V121.28ZM431.768 129.376C431.448 129.008 430.088 127.6 429.592 127.184V126.208H431.592V125.088H429.592V122.384C430.344 122.208 431.048 121.984 431.624 121.744L430.792 120.848C429.624 121.376 427.528 121.84 425.736 122.128C425.88 122.4 426.04 122.784 426.104 123.056C426.84 122.944 427.656 122.816 428.44 122.656V125.088H425.832V126.208H428.28C427.64 128.032 426.536 130.096 425.528 131.216C425.72 131.504 426.008 131.968 426.12 132.304C426.936 131.328 427.784 129.728 428.44 128.112V135.184H429.592V128.336C430.136 128.992 430.792 129.872 431.048 130.32L431.768 129.376ZM436.472 133.728V131.664H439.656V130.624H436.472V128.72H440.008V127.664H431.816V128.72H435.288V130.624H432.184V131.664H435.288V133.728H431.096V134.8H440.36V133.728H436.472ZM446.664 133.6C444.936 133.6 444.584 133.376 444.584 132.368V128.144H452.936V128.928H454.152V121.616H442.536V122.784H452.936V126.976H444.584V124.352H443.384V132.352C443.384 134.32 444.184 134.768 446.744 134.768H452.728C455.336 134.768 455.864 133.904 456.168 130.976C455.816 130.912 455.288 130.72 454.968 130.496C454.744 133.072 454.488 133.6 452.744 133.6H446.664ZM464.456 124.16H465.576V122.944H468.2V124.16H469.32V122.944H472.072V121.92H469.32V120.64H468.2V121.92H465.576V120.64H464.456V121.92H461.784V122.944H464.456V124.16ZM460.92 126.832C460.344 126.384 459.272 125.744 458.424 125.328L457.72 126.16C458.584 126.608 459.656 127.28 460.184 127.76L460.92 126.832ZM459.096 134.864C459.88 133.44 460.808 131.536 461.496 129.92L460.568 129.168C459.8 130.912 458.76 132.928 458.04 134.112L459.096 134.864ZM458.504 121.776C459.336 122.288 460.376 123.04 460.888 123.552L461.656 122.672C461.112 122.176 460.056 121.472 459.24 120.992L458.504 121.776ZM466.088 127.088C466.12 126.64 466.12 126.144 466.136 125.648H467.96C467.96 126.144 467.944 126.64 467.928 127.088H466.088ZM472.168 125.648V124.64H461.704V125.648H465.144C465.144 126.144 465.128 126.64 465.112 127.088H462.12V135.168H463.272V128.144H465.032C464.856 129.968 464.424 131.392 463.352 132.4C463.592 132.528 463.992 132.896 464.152 133.072C464.808 132.368 465.272 131.552 465.56 130.576C465.88 130.976 466.184 131.424 466.344 131.744L467.032 131.072C466.808 130.64 466.28 130.032 465.816 129.52C465.896 129.104 465.96 128.624 466.008 128.144H467.848C467.672 130.128 467.224 131.696 466.152 132.816C466.392 132.96 466.824 133.264 466.968 133.424C467.656 132.64 468.12 131.696 468.408 130.592C468.872 131.28 469.272 132.016 469.496 132.528L470.296 131.904C470.024 131.216 469.304 130.144 468.664 129.344C468.728 128.96 468.776 128.56 468.808 128.144H470.6V134.016C470.6 134.224 470.536 134.272 470.312 134.288C470.12 134.304 469.416 134.304 468.632 134.288C468.76 134.528 468.904 134.848 468.968 135.104C470.072 135.104 470.76 135.104 471.16 134.96C471.576 134.8 471.704 134.576 471.704 134.016V127.088H468.888C468.904 126.64 468.92 126.144 468.936 125.648H472.168Z" fill="black"/>
<g filter="url(#filter9_d_0_1)">
<path d="M562 113C562 104.716 568.716 98 577 98H675C683.284 98 690 104.716 690 113V121C690 129.284 683.284 136 675 136H577C568.716 136 562 129.284 562 121V113Z" fill="#8ECFC9"/>
<path d="M583.664 115.568L581.968 116.096V113.072H583.6V111.968H581.968V108.624H580.832V111.968H578.832V113.072H580.832V116.448C579.984 116.688 579.216 116.928 578.592 117.088L578.896 118.24L580.832 117.616V121.792C580.832 122.016 580.752 122.08 580.544 122.08C580.368 122.08 579.744 122.08 579.056 122.064C579.216 122.4 579.36 122.896 579.408 123.216C580.432 123.216 581.04 123.168 581.408 122.976C581.824 122.768 581.968 122.448 581.968 121.792V117.248C582.592 117.056 583.216 116.848 583.824 116.64L583.664 115.568ZM587.568 112.032C587.584 110.96 587.584 109.824 587.568 108.592L586.4 108.608C586.432 109.84 586.448 110.96 586.432 112.032H583.984V113.12H586.4C586.368 114.208 586.288 115.2 586.144 116.112C585.632 115.808 585.12 115.536 584.64 115.28L583.984 116.096C584.592 116.432 585.28 116.832 585.936 117.232C585.408 119.472 584.384 121.136 582.416 122.304C582.688 122.528 583.12 123.04 583.264 123.28C585.28 121.92 586.368 120.192 586.96 117.872C587.808 118.432 588.576 118.96 589.088 119.392L589.792 118.448C589.168 117.968 588.208 117.328 587.184 116.72C587.376 115.648 587.488 114.448 587.536 113.12H589.968C589.904 119.456 589.776 123.216 591.84 123.216C592.832 123.216 593.216 122.624 593.344 120.496C593.056 120.384 592.624 120.176 592.368 119.952C592.304 121.552 592.176 122.08 591.904 122.08C590.976 122.08 591.024 118.624 591.184 112.032H587.568ZM608.768 109.584H600.96V110.704H608.768V109.584ZM598.288 108.608C597.488 109.744 595.952 111.184 594.624 112.08C594.832 112.304 595.152 112.768 595.328 113.024C596.752 112.016 598.384 110.464 599.424 109.056L598.288 108.608ZM598.944 112.016C597.84 113.824 596.112 115.664 594.464 116.832C594.704 117.072 595.12 117.584 595.296 117.824C595.888 117.36 596.496 116.784 597.104 116.16V123.264H598.288V114.848C598.944 114.064 599.552 113.248 600.048 112.432L598.944 112.016ZM609.232 113.952H600.272V115.088H605.616V121.68C605.616 121.952 605.52 122.016 605.216 122.032C604.912 122.048 603.856 122.048 602.72 122.016C602.896 122.352 603.056 122.848 603.104 123.168C604.672 123.168 605.568 123.168 606.112 122.992C606.64 122.8 606.816 122.432 606.816 121.696V115.088H609.232V113.952ZM616.176 115.488L614.224 116.048V112.928H616.16V111.824H614.224V108.624H613.072V111.824H610.784V112.928H613.072V116.368C612.128 116.624 611.264 116.848 610.56 117.008L610.912 118.176L613.072 117.536V121.84C613.072 122.08 612.976 122.16 612.768 122.16C612.56 122.16 611.872 122.16 611.12 122.144C611.28 122.448 611.424 122.944 611.472 123.216C612.576 123.232 613.232 123.2 613.648 123.024C614.064 122.832 614.224 122.512 614.224 121.84V117.2L616.32 116.576L616.176 115.488ZM623.248 114.176V117.296H618.128V114.176H623.248ZM625.328 121.104H618.128V118.4H624.416V113.072H618.128V110.544H625.104V109.44H616.96V123.216H618.128V122.208H625.328V121.104ZM628.768 117.488C630.016 116.048 631.264 114.336 632.336 112.576L631.36 111.984C631.072 112.56 630.704 113.136 630.352 113.68L628.208 113.904C629.216 112.528 630.192 110.736 630.96 109.024L629.856 108.528C629.152 110.496 627.936 112.592 627.536 113.12C627.184 113.664 626.88 114.064 626.592 114.128C626.736 114.432 626.912 114.992 626.976 115.232C627.216 115.12 627.6 115.04 629.632 114.752C628.896 115.808 628.224 116.624 627.936 116.944C627.408 117.552 627.024 117.936 626.688 118C626.816 118.304 626.992 118.832 627.056 119.056C627.392 118.848 627.968 118.704 632.336 117.824C632.304 117.584 632.304 117.136 632.336 116.816L628.768 117.488ZM626.896 122.24C628.448 121.84 630.528 121.344 632.544 120.832L632.432 119.84C630.304 120.32 628.112 120.816 626.688 121.104L626.896 122.24ZM637.776 111.248C637.456 111.888 637.024 112.592 636.656 113.072L636.672 113.088H633.696C634.112 112.528 634.512 111.904 634.896 111.248H637.776ZM639.264 117.056H637.248V114.128H639.264V117.056ZM634.176 114.128H636.208V117.056H634.176V114.128ZM635.392 121.904C634.368 121.904 634.176 121.744 634.176 121.04V118.096H640.384V113.088H637.856C638.384 112.368 638.928 111.472 639.344 110.656L638.608 110.128L638.384 110.208H635.424C635.664 109.744 635.872 109.232 636.048 108.752L634.96 108.448C634.272 110.352 633.12 112.24 631.856 113.472C632.112 113.632 632.56 114.016 632.752 114.208C632.864 114.096 632.96 113.984 633.072 113.856V121.04C633.072 122.576 633.616 122.96 635.328 122.96H639.152C640.736 122.96 641.088 122.336 641.264 120.24C640.928 120.176 640.48 120 640.208 119.808C640.112 121.536 639.968 121.904 639.088 121.904H635.392ZM645.856 111.04C646.192 111.664 646.544 112.4 646.688 112.896L647.728 112.512C647.6 112.128 647.344 111.552 647.04 111.04H649.776V110.016H645.68C645.888 109.632 646.064 109.248 646.224 108.848L645.104 108.56C644.576 109.936 643.616 111.328 642.592 112.224C642.864 112.368 643.344 112.704 643.568 112.88C644.096 112.384 644.608 111.744 645.072 111.04H645.856ZM650.704 116.56H654.704V118.464C654.704 118.624 654.656 118.688 654.464 118.688C654.288 118.688 653.664 118.704 653.024 118.672C653.168 118.944 653.36 119.312 653.424 119.616C654.32 119.616 654.96 119.616 655.36 119.456C655.776 119.28 655.888 119.04 655.888 118.464V115.52H650.704V114.288H656.8V113.232H650.704V112.224H650.352C650.656 111.872 650.976 111.456 651.264 111.04H652.48C652.88 111.648 653.264 112.368 653.44 112.864L654.48 112.496C654.336 112.096 654.048 111.552 653.712 111.04H657.008V110.016H651.872C652.064 109.632 652.24 109.248 652.4 108.832L651.232 108.56C650.736 109.984 649.776 111.328 648.688 112.192C648.912 112.288 649.216 112.512 649.456 112.704V113.232H643.136V114.288H649.456V115.52H644.288V119.632H645.52V116.56H649.456V117.936C648.048 119.68 645.376 121.104 642.736 121.712C643.008 121.952 643.344 122.4 643.488 122.704C645.696 122.096 647.888 120.88 649.456 119.344V123.216H650.704V119.376C652.08 120.672 654.208 121.984 656.656 122.64C656.832 122.336 657.168 121.856 657.408 121.6C654.496 120.96 651.968 119.472 650.704 118.064V116.56ZM666.352 117.408C667.328 116.88 668.272 116.224 669.136 115.44C669.936 116.192 670.848 116.864 671.856 117.408H666.352ZM666.832 121.536V118.464H671.264V121.536H666.832ZM664.544 113.44C664.768 113.632 665.008 113.872 665.136 114.016C665.68 113.568 666.208 113.04 666.704 112.432C667.136 113.168 667.696 113.936 668.368 114.672C667.2 115.696 665.856 116.512 664.544 117.056V113.44ZM662.288 118.864V115.056H663.584V118.864H662.288ZM660.192 115.056H661.472V118.864H660.192V115.056ZM661.472 110.576V114.048H660.192V110.576H661.472ZM663.584 114.048H662.288V110.576H663.584V114.048ZM671.056 111.312C670.576 112.256 669.904 113.136 669.136 113.936C668.384 113.168 667.792 112.336 667.36 111.568L667.536 111.312H671.056ZM671.84 110.256L671.632 110.32H668.144C668.416 109.856 668.656 109.36 668.864 108.864L667.744 108.56C667.056 110.272 665.888 111.856 664.544 112.944V109.552H659.28V121.328H660.192V119.92H664.544V117.488C664.704 117.68 664.864 117.92 664.944 118.096C665.2 117.984 665.456 117.872 665.712 117.744V123.136H666.832V122.592H671.264V123.104H672.416V117.696C672.592 117.776 672.752 117.856 672.928 117.92C673.104 117.6 673.44 117.152 673.696 116.912C672.256 116.4 670.992 115.6 669.936 114.688C671.056 113.536 672 112.176 672.608 110.64L671.84 110.256Z" fill="black"/>
</g>
<path d="M346.286 109.104H340.082V108.132H346.286V109.104ZM346.286 110.724H340.082V109.752H346.286V110.724ZM347.174 107.448H339.206V111.408H347.174V107.448ZM343.754 115.14H347.714V114.348H343.754V113.016H348.494V112.212H337.958V113.016H342.878V116.628C341.846 116.352 341.078 115.8 340.61 114.72C340.73 114.336 340.838 113.94 340.922 113.52L340.022 113.4C339.698 115.152 338.942 116.496 337.694 117.3C337.886 117.444 338.234 117.78 338.354 117.936C339.134 117.36 339.758 116.616 340.226 115.68C341.198 117.3 342.722 117.684 345.134 117.684H348.398C348.446 117.42 348.59 117.036 348.71 116.832C348.098 116.844 345.614 116.844 345.17 116.844C344.666 116.844 344.186 116.82 343.754 116.772V115.14Z" fill="black"/>
<g filter="url(#filter10_d_0_1)">
<path d="M382 120L367 111.34V128.66L382 120ZM325 121.5H368.5V118.5H325V121.5Z" fill="#FA7F6F"/>
</g>
<path d="M538.072 109.104H531.868V108.132H538.072V109.104ZM538.072 110.724H531.868V109.752H538.072V110.724ZM538.96 107.448H530.992V111.408H538.96V107.448ZM535.54 115.14H539.5V114.348H535.54V113.016H540.28V112.212H529.744V113.016H534.664V116.628C533.632 116.352 532.864 115.8 532.396 114.72C532.516 114.336 532.624 113.94 532.708 113.52L531.808 113.4C531.484 115.152 530.728 116.496 529.48 117.3C529.672 117.444 530.02 117.78 530.14 117.936C530.92 117.36 531.544 116.616 532.012 115.68C532.984 117.3 534.508 117.684 536.92 117.684H540.184C540.232 117.42 540.376 117.036 540.496 116.832C539.884 116.844 537.4 116.844 536.956 116.844C536.452 116.844 535.972 116.82 535.54 116.772V115.14Z" fill="black"/>
<g filter="url(#filter11_d_0_1)">
<path d="M562 120L547 111.34V128.66L562 120ZM520 121.5H548.5V118.5H520V121.5Z" fill="#FA7F6F"/>
</g>
<g filter="url(#filter12_d_0_1)">
<path d="M258 192L266.66 177H249.34L258 192ZM256.5 150V178.5H259.5V150H256.5Z" fill="#82B0D2"/>
</g>
<path d="M266.544 166.076H267.432V162.416C267.756 162.128 268.056 161.804 268.332 161.48H272.172V160.64H261.84V161.48H267.132C265.752 162.932 263.604 164.096 261.48 164.792C261.672 164.984 261.972 165.392 262.104 165.596C263.628 165.02 265.212 164.192 266.544 163.172V166.076ZM269.988 167.204V169.544H264.06V167.204H269.988ZM263.16 170.924H264.06V170.348H269.988V170.9H270.936V166.412H263.16V170.924ZM267.936 163.244C269.316 163.808 270.96 164.768 271.824 165.464L272.46 164.792C271.584 164.132 269.94 163.208 268.572 162.644L267.936 163.244Z" fill="black"/>
<g filter="url(#filter13_d_0_1)">
<path d="M451 192L459.66 177H442.34L451 192ZM449.5 150V178.5H452.5V150H449.5Z" fill="#82B0D2"/>
</g>
<path d="M459.544 166.076H460.432V162.416C460.756 162.128 461.056 161.804 461.332 161.48H465.172V160.64H454.84V161.48H460.132C458.752 162.932 456.604 164.096 454.48 164.792C454.672 164.984 454.972 165.392 455.104 165.596C456.628 165.02 458.212 164.192 459.544 163.172V166.076ZM462.988 167.204V169.544H457.06V167.204H462.988ZM456.16 170.924H457.06V170.348H462.988V170.9H463.936V166.412H456.16V170.924ZM460.936 163.244C462.316 163.808 463.96 164.768 464.824 165.464L465.46 164.792C464.584 164.132 462.94 163.208 461.572 162.644L460.936 163.244Z" fill="black"/>
<g filter="url(#filter14_d_0_1)">
<path d="M363 207C363 198.716 369.716 192 378 192H524C532.284 192 539 198.716 539 207V215C539 223.284 532.284 230 524 230H378C369.716 230 363 223.284 363 215V207Z" fill="#8ECFC9"/>
<path d="M383.432 215.952C382.616 215.952 382.472 215.84 382.472 215.248V209.488H385.944C385.816 211.424 385.656 212.192 385.48 212.432C385.352 212.56 385.224 212.576 385.016 212.576C384.776 212.576 384.232 212.576 383.656 212.512C383.8 212.8 383.912 213.216 383.944 213.536C384.584 213.584 385.192 213.568 385.512 213.552C385.912 213.504 386.184 213.408 386.424 213.136C386.792 212.736 386.936 211.664 387.096 208.912C387.112 208.768 387.112 208.432 387.112 208.432H381.32V215.248C381.32 216.64 381.8 216.992 383.336 216.992H386.296C387.704 216.992 388.056 216.384 388.2 214.176C387.88 214.112 387.416 213.92 387.144 213.744C387.064 215.616 386.952 215.952 386.216 215.952H383.432ZM384.04 202.64C383.192 204.704 381.512 206.896 379.496 208.336C379.752 208.528 380.168 208.944 380.36 209.168C381.928 207.952 383.288 206.352 384.296 204.624C385.56 205.984 386.936 207.632 387.656 208.704L388.504 207.92C387.736 206.784 386.136 205.008 384.824 203.664C384.936 203.424 385.048 203.216 385.144 202.976L384.04 202.64ZM390.408 204.48H389.272V213.296H390.408V204.48ZM392.376 202.864V215.648C392.376 215.936 392.248 216.032 391.96 216.048C391.656 216.064 390.648 216.08 389.528 216.032C389.704 216.352 389.88 216.864 389.944 217.168C391.432 217.184 392.312 217.152 392.824 216.96C393.32 216.768 393.544 216.448 393.544 215.648V202.864H392.376ZM405.592 204.832H407.96V205.984H405.592V204.832ZM407.96 208.112H405.592V206.928H407.96V208.112ZM404.44 208.112H401.064V209.072H404.44V210.256H400.984V211.168H404.44V212.432H400.248V213.408H404.44V215.104H405.592V213.408H409.96V212.432H405.592V211.168H409.272V210.256H405.592V209.072H409.112V206.928H410.312V205.984H409.112V203.888H405.592V202.736H404.44V203.888H401.176V204.832H404.44V205.984H400.04V206.928H404.44V208.112ZM399.736 208.128L399.512 208.16H397.864C398.6 206.64 399.384 205.024 399.896 203.808L399.08 203.568L398.888 203.632H395.72V204.688H398.296C397.656 206.096 396.728 208.032 395.928 209.536L397.016 209.84L397.336 209.216H399.192C399 210.624 398.696 211.84 398.28 212.864C397.848 212.224 397.496 211.44 397.208 210.48L396.28 210.832C396.68 212.128 397.176 213.152 397.768 213.952C397.192 215.024 396.456 215.84 395.592 216.416C395.864 216.576 396.312 217.008 396.488 217.248C397.304 216.672 398.008 215.888 398.584 214.864C400.264 216.416 402.568 216.8 405.464 216.8H409.928C410.008 216.448 410.232 215.92 410.424 215.632C409.592 215.648 406.152 215.648 405.496 215.648C402.84 215.648 400.664 215.312 399.112 213.84C399.736 212.384 400.184 210.544 400.424 208.304L399.736 208.128ZM418.84 211.408L417.48 211.648C417.56 211.088 417.592 210.56 417.592 210.112V202.704H416.424V205.04H412.28V206.144H416.424V208.608H412.472V209.696H416.424V210.112C416.424 210.592 416.376 211.2 416.232 211.856C414.504 212.144 412.872 212.4 411.688 212.56L411.944 213.744C413.064 213.552 414.424 213.296 415.864 213.024C415.304 214.32 414.264 215.648 412.296 216.496C412.552 216.736 412.952 217.104 413.128 217.392C415.56 216.24 416.696 214.448 417.208 212.768L418.888 212.448L418.84 211.408ZM426.264 212.24H421.416V209.696H425.656V208.608H421.416V206.144H425.992V205.04H421.416V202.704H420.216V217.216H421.416V213.344H426.264V212.24ZM433.496 208.688C434.44 209.36 435.576 210.32 436.328 211.056C435.352 211.808 434.264 212.464 433.16 212.944C433.432 213.152 433.768 213.536 433.912 213.808C436.728 212.464 439.272 210.24 440.792 207.712L439.752 207.296C439.128 208.368 438.248 209.408 437.224 210.32C436.84 209.952 436.328 209.52 435.8 209.088C436.536 208.256 437.416 207.12 438.12 206.144L438.056 206.112H442.264V205.024H438.408V202.656H437.24V205.024H433.256V206.112H436.68C436.216 206.896 435.576 207.792 435.016 208.496C434.744 208.288 434.456 208.08 434.2 207.904L433.496 208.688ZM433.416 211.28C433.112 210.816 431.816 208.944 431.336 208.352V207.136H433.208V206.032H431.336V202.608H430.216V206.032H427.88V207.136H430.104C429.608 209.328 428.584 211.824 427.576 213.168C427.784 213.44 428.072 213.904 428.2 214.224C428.952 213.184 429.672 211.504 430.216 209.76V217.2H431.336V209.76C431.848 210.592 432.472 211.648 432.744 212.192L433.416 211.28ZM441.064 210.192C439.448 212.96 436.376 215.12 432.744 216.256C433.016 216.512 433.304 216.912 433.464 217.2C435.432 216.528 437.224 215.6 438.728 214.432C439.768 215.376 440.888 216.528 441.464 217.264L442.424 216.528C441.784 215.776 440.6 214.64 439.576 213.728C440.6 212.832 441.464 211.808 442.136 210.672L441.064 210.192ZM454.52 208.336C455.864 210.128 457.032 212.608 457.4 214.272L458.568 213.712C458.184 212.032 456.984 209.616 455.56 207.808L454.52 208.336ZM445.24 208.336C445.032 210.384 444.504 212.704 443.432 214.096L444.504 214.752C445.64 213.216 446.136 210.704 446.392 208.56L445.24 208.336ZM448.024 203.6C449.944 204.272 452.248 205.456 453.496 206.368L454.248 205.328C452.984 204.496 450.68 203.328 448.776 202.688L448.024 203.6ZM447.912 207.04V215.024C447.912 216.576 448.376 217.008 450.072 217.008H453.176C454.904 217.008 455.288 216.128 455.448 213.12C455.112 213.04 454.616 212.816 454.344 212.576C454.216 215.344 454.072 215.92 453.112 215.92H450.168C449.288 215.92 449.112 215.776 449.112 215.04V207.04H447.912ZM473.224 204.272C472.728 203.856 471.704 203.248 470.92 202.912L470.248 203.568C471.032 203.952 472.04 204.576 472.536 205.008L473.224 204.272ZM461.992 211.488C463.224 210.064 464.408 208.32 465.432 206.56L464.44 205.952C464.136 206.544 463.8 207.136 463.432 207.728L461.432 207.92C462.376 206.56 463.288 204.832 463.992 203.184L462.872 202.672C462.232 204.576 461.08 206.608 460.744 207.136C460.392 207.68 460.12 208.048 459.832 208.112C459.96 208.432 460.152 208.992 460.2 209.248C460.44 209.12 460.824 209.024 462.744 208.768C462.056 209.808 461.432 210.608 461.128 210.928C460.648 211.52 460.28 211.904 459.944 211.968C460.088 212.288 460.248 212.816 460.312 213.056C460.648 212.864 461.176 212.72 465.16 211.904C465.128 211.68 465.128 211.216 465.16 210.912L461.992 211.488ZM465.224 213.68C463.256 214.208 461.24 214.784 459.928 215.088L460.168 216.24L465.4 214.688L465.224 213.68ZM473.144 210.416C472.504 211.424 471.64 212.336 470.632 213.152C470.376 212.288 470.152 211.264 469.976 210.128L474.04 209.36L473.832 208.32L469.848 209.072C469.768 208.4 469.704 207.712 469.64 206.976L473.592 206.368L473.4 205.328L469.576 205.888C469.528 204.832 469.512 203.744 469.512 202.592H468.344C468.36 203.792 468.392 204.944 468.456 206.064L465.944 206.432L466.152 207.504L468.504 207.136C468.552 207.872 468.632 208.592 468.712 209.28L465.608 209.856L465.8 210.928L468.856 210.336C469.048 211.664 469.304 212.848 469.64 213.856C468.28 214.752 466.744 215.472 465.112 215.968C465.384 216.24 465.704 216.64 465.848 216.944C467.336 216.432 468.776 215.728 470.04 214.896C470.696 216.336 471.544 217.184 472.68 217.184C473.768 217.184 474.136 216.656 474.344 214.864C474.072 214.768 473.72 214.512 473.464 214.24C473.4 215.648 473.224 216.032 472.792 216.032C472.104 216.032 471.496 215.376 471 214.208C472.264 213.264 473.336 212.128 474.136 210.88L473.144 210.416ZM488.296 207.248H483.496V204.32H488.296V207.248ZM489.464 203.28H482.408V208.272H489.464V203.28ZM481.768 211.376C481.448 211.008 480.088 209.6 479.592 209.184V208.208H481.592V207.088H479.592V204.384C480.344 204.208 481.048 203.984 481.624 203.744L480.792 202.848C479.624 203.376 477.528 203.84 475.736 204.128C475.88 204.4 476.04 204.784 476.104 205.056C476.84 204.944 477.656 204.816 478.44 204.656V207.088H475.832V208.208H478.28C477.64 210.032 476.536 212.096 475.528 213.216C475.72 213.504 476.008 213.968 476.12 214.304C476.936 213.328 477.784 211.728 478.44 210.112V217.184H479.592V210.336C480.136 210.992 480.792 211.872 481.048 212.32L481.768 211.376ZM486.472 215.728V213.664H489.656V212.624H486.472V210.72H490.008V209.664H481.816V210.72H485.288V212.624H482.184V213.664H485.288V215.728H481.096V216.8H490.36V215.728H486.472ZM496.664 209.568L494.968 210.096V207.072H496.6V205.968H494.968V202.624H493.832V205.968H491.832V207.072H493.832V210.448C492.984 210.688 492.216 210.928 491.592 211.088L491.896 212.24L493.832 211.616V215.792C493.832 216.016 493.752 216.08 493.544 216.08C493.368 216.08 492.744 216.08 492.056 216.064C492.216 216.4 492.36 216.896 492.408 217.216C493.432 217.216 494.04 217.168 494.408 216.976C494.824 216.768 494.968 216.448 494.968 215.792V211.248C495.592 211.056 496.216 210.848 496.824 210.64L496.664 209.568ZM500.568 206.032C500.584 204.96 500.584 203.824 500.568 202.592L499.4 202.608C499.432 203.84 499.448 204.96 499.432 206.032H496.984V207.12H499.4C499.368 208.208 499.288 209.2 499.144 210.112C498.632 209.808 498.12 209.536 497.64 209.28L496.984 210.096C497.592 210.432 498.28 210.832 498.936 211.232C498.408 213.472 497.384 215.136 495.416 216.304C495.688 216.528 496.12 217.04 496.264 217.28C498.28 215.92 499.368 214.192 499.96 211.872C500.808 212.432 501.576 212.96 502.088 213.392L502.792 212.448C502.168 211.968 501.208 211.328 500.184 210.72C500.376 209.648 500.488 208.448 500.536 207.12H502.968C502.904 213.456 502.776 217.216 504.84 217.216C505.832 217.216 506.216 216.624 506.344 214.496C506.056 214.384 505.624 214.176 505.368 213.952C505.304 215.552 505.176 216.08 504.904 216.08C503.976 216.08 504.024 212.624 504.184 206.032H500.568ZM521.768 203.584H513.96V204.704H521.768V203.584ZM511.288 202.608C510.488 203.744 508.952 205.184 507.624 206.08C507.832 206.304 508.152 206.768 508.328 207.024C509.752 206.016 511.384 204.464 512.424 203.056L511.288 202.608ZM511.944 206.016C510.84 207.824 509.112 209.664 507.464 210.832C507.704 211.072 508.12 211.584 508.296 211.824C508.888 211.36 509.496 210.784 510.104 210.16V217.264H511.288V208.848C511.944 208.064 512.552 207.248 513.048 206.432L511.944 206.016ZM522.232 207.952H513.272V209.088H518.616V215.68C518.616 215.952 518.52 216.016 518.216 216.032C517.912 216.048 516.856 216.048 515.72 216.016C515.896 216.352 516.056 216.848 516.104 217.168C517.672 217.168 518.568 217.168 519.112 216.992C519.64 216.8 519.816 216.432 519.816 215.696V209.088H522.232V207.952Z" fill="black"/>
</g>
</g>
<defs>
<filter id="filter0_d_0_1" x="66.3398" y="48" width="25.3205" height="50" filterUnits="userSpaceOnUse" color-interpolation-filters="sRGB">
<feFlood flood-opacity="0" result="BackgroundImageFix"/>
<feColorMatrix in="SourceAlpha" type="matrix" values="0 0 0 0 0 0 0 0 0 0 0 0 0 0 0 0 0 0 127 0" result="hardAlpha"/>
<feOffset dy="4"/>
<feGaussianBlur stdDeviation="2"/>
<feComposite in2="hardAlpha" operator="out"/>
<feColorMatrix type="matrix" values="0 0 0 0 0 0 0 0 0 0 0 0 0 0 0 0 0 0 0.25 0"/>
<feBlend mode="normal" in2="BackgroundImageFix" result="effect1_dropShadow_0_1"/>
<feBlend mode="normal" in="SourceGraphic" in2="effect1_dropShadow_0_1" result="shape"/>
</filter>
<filter id="filter1_d_0_1" x="27" y="10" width="104" height="46" filterUnits="userSpaceOnUse" color-interpolation-filters="sRGB">
<feFlood flood-opacity="0" result="BackgroundImageFix"/>
<feColorMatrix in="SourceAlpha" type="matrix" values="0 0 0 0 0 0 0 0 0 0 0 0 0 0 0 0 0 0 127 0" result="hardAlpha"/>
<feOffset dy="4"/>
<feGaussianBlur stdDeviation="2"/>
<feComposite in2="hardAlpha" operator="out"/>
<feColorMatrix type="matrix" values="0 0 0 0 0 0 0 0 0 0 0 0 0 0 0 0 0 0 0.25 0"/>
<feBlend mode="normal" in2="BackgroundImageFix" result="effect1_dropShadow_0_1"/>
<feBlend mode="normal" in="SourceGraphic" in2="effect1_dropShadow_0_1" result="shape"/>
</filter>
<filter id="filter2_d_0_1" x="-4" y="192" width="168" height="46" filterUnits="userSpaceOnUse" color-interpolation-filters="sRGB">
<feFlood flood-opacity="0" result="BackgroundImageFix"/>
<feColorMatrix in="SourceAlpha" type="matrix" values="0 0 0 0 0 0 0 0 0 0 0 0 0 0 0 0 0 0 127 0" result="hardAlpha"/>
<feOffset dy="4"/>
<feGaussianBlur stdDeviation="2"/>
<feComposite in2="hardAlpha" operator="out"/>
<feColorMatrix type="matrix" values="0 0 0 0 0 0 0 0 0 0 0 0 0 0 0 0 0 0 0.25 0"/>
<feBlend mode="normal" in2="BackgroundImageFix" result="effect1_dropShadow_0_1"/>
<feBlend mode="normal" in="SourceGraphic" in2="effect1_dropShadow_0_1" result="shape"/>
</filter>
<filter id="filter3_d_0_1" x="182" y="192" width="152" height="46" filterUnits="userSpaceOnUse" color-interpolation-filters="sRGB">
<feFlood flood-opacity="0" result="BackgroundImageFix"/>
<feColorMatrix in="SourceAlpha" type="matrix" values="0 0 0 0 0 0 0 0 0 0 0 0 0 0 0 0 0 0 127 0" result="hardAlpha"/>
<feOffset dy="4"/>
<feGaussianBlur stdDeviation="2"/>
<feComposite in2="hardAlpha" operator="out"/>
<feColorMatrix type="matrix" values="0 0 0 0 0 0 0 0 0 0 0 0 0 0 0 0 0 0 0.25 0"/>
<feBlend mode="normal" in2="BackgroundImageFix" result="effect1_dropShadow_0_1"/>
<feBlend mode="normal" in="SourceGraphic" in2="effect1_dropShadow_0_1" result="shape"/>
</filter>
<filter id="filter4_d_0_1" x="6" y="90" width="145.917" height="67.5249" filterUnits="userSpaceOnUse" color-interpolation-filters="sRGB">
<feFlood flood-opacity="0" result="BackgroundImageFix"/>
<feColorMatrix in="SourceAlpha" type="matrix" values="0 0 0 0 0 0 0 0 0 0 0 0 0 0 0 0 0 0 127 0" result="hardAlpha"/>
<feOffset dy="4"/>
<feGaussianBlur stdDeviation="2"/>
<feComposite in2="hardAlpha" operator="out"/>
<feColorMatrix type="matrix" values="0 0 0 0 0 0 0 0 0 0 0 0 0 0 0 0 0 0 0.25 0"/>
<feBlend mode="normal" in2="BackgroundImageFix" result="effect1_dropShadow_0_1"/>
<feBlend mode="normal" in="SourceGraphic" in2="effect1_dropShadow_0_1" result="shape"/>
</filter>
<filter id="filter5_d_0_1" x="143" y="111.34" width="50" height="25.3205" filterUnits="userSpaceOnUse" color-interpolation-filters="sRGB">
<feFlood flood-opacity="0" result="BackgroundImageFix"/>
<feColorMatrix in="SourceAlpha" type="matrix" values="0 0 0 0 0 0 0 0 0 0 0 0 0 0 0 0 0 0 127 0" result="hardAlpha"/>
<feOffset dy="4"/>
<feGaussianBlur stdDeviation="2"/>
<feComposite in2="hardAlpha" operator="out"/>
<feColorMatrix type="matrix" values="0 0 0 0 0 0 0 0 0 0 0 0 0 0 0 0 0 0 0.25 0"/>
<feBlend mode="normal" in2="BackgroundImageFix" result="effect1_dropShadow_0_1"/>
<feBlend mode="normal" in="SourceGraphic" in2="effect1_dropShadow_0_1" result="shape"/>
</filter>
<filter id="filter6_d_0_1" x="66.3398" y="150" width="25.3205" height="50" filterUnits="userSpaceOnUse" color-interpolation-filters="sRGB">
<feFlood flood-opacity="0" result="BackgroundImageFix"/>
<feColorMatrix in="SourceAlpha" type="matrix" values="0 0 0 0 0 0 0 0 0 0 0 0 0 0 0 0 0 0 127 0" result="hardAlpha"/>
<feOffset dy="4"/>
<feGaussianBlur stdDeviation="2"/>
<feComposite in2="hardAlpha" operator="out"/>
<feColorMatrix type="matrix" values="0 0 0 0 0 0 0 0 0 0 0 0 0 0 0 0 0 0 0.25 0"/>
<feBlend mode="normal" in2="BackgroundImageFix" result="effect1_dropShadow_0_1"/>
<feBlend mode="normal" in="SourceGraphic" in2="effect1_dropShadow_0_1" result="shape"/>
</filter>
<filter id="filter7_d_0_1" x="185" y="90" width="145.917" height="67.5249" filterUnits="userSpaceOnUse" color-interpolation-filters="sRGB">
<feFlood flood-opacity="0" result="BackgroundImageFix"/>
<feColorMatrix in="SourceAlpha" type="matrix" values="0 0 0 0 0 0 0 0 0 0 0 0 0 0 0 0 0 0 127 0" result="hardAlpha"/>
<feOffset dy="4"/>
<feGaussianBlur stdDeviation="2"/>
<feComposite in2="hardAlpha" operator="out"/>
<feColorMatrix type="matrix" values="0 0 0 0 0 0 0 0 0 0 0 0 0 0 0 0 0 0 0.25 0"/>
<feBlend mode="normal" in2="BackgroundImageFix" result="effect1_dropShadow_0_1"/>
<feBlend mode="normal" in="SourceGraphic" in2="effect1_dropShadow_0_1" result="shape"/>
</filter>
<filter id="filter8_d_0_1" x="378" y="90" width="145.917" height="67.5249" filterUnits="userSpaceOnUse" color-interpolation-filters="sRGB">
<feFlood flood-opacity="0" result="BackgroundImageFix"/>
<feColorMatrix in="SourceAlpha" type="matrix" values="0 0 0 0 0 0 0 0 0 0 0 0 0 0 0 0 0 0 127 0" result="hardAlpha"/>
<feOffset dy="4"/>
<feGaussianBlur stdDeviation="2"/>
<feComposite in2="hardAlpha" operator="out"/>
<feColorMatrix type="matrix" values="0 0 0 0 0 0 0 0 0 0 0 0 0 0 0 0 0 0 0.25 0"/>
<feBlend mode="normal" in2="BackgroundImageFix" result="effect1_dropShadow_0_1"/>
<feBlend mode="normal" in="SourceGraphic" in2="effect1_dropShadow_0_1" result="shape"/>
</filter>
<filter id="filter9_d_0_1" x="558" y="98" width="136" height="46" filterUnits="userSpaceOnUse" color-interpolation-filters="sRGB">
<feFlood flood-opacity="0" result="BackgroundImageFix"/>
<feColorMatrix in="SourceAlpha" type="matrix" values="0 0 0 0 0 0 0 0 0 0 0 0 0 0 0 0 0 0 127 0" result="hardAlpha"/>
<feOffset dy="4"/>
<feGaussianBlur stdDeviation="2"/>
<feComposite in2="hardAlpha" operator="out"/>
<feColorMatrix type="matrix" values="0 0 0 0 0 0 0 0 0 0 0 0 0 0 0 0 0 0 0.25 0"/>
<feBlend mode="normal" in2="BackgroundImageFix" result="effect1_dropShadow_0_1"/>
<feBlend mode="normal" in="SourceGraphic" in2="effect1_dropShadow_0_1" result="shape"/>
</filter>
<filter id="filter10_d_0_1" x="321" y="111.34" width="65" height="25.3205" filterUnits="userSpaceOnUse" color-interpolation-filters="sRGB">
<feFlood flood-opacity="0" result="BackgroundImageFix"/>
<feColorMatrix in="SourceAlpha" type="matrix" values="0 0 0 0 0 0 0 0 0 0 0 0 0 0 0 0 0 0 127 0" result="hardAlpha"/>
<feOffset dy="4"/>
<feGaussianBlur stdDeviation="2"/>
<feComposite in2="hardAlpha" operator="out"/>
<feColorMatrix type="matrix" values="0 0 0 0 0 0 0 0 0 0 0 0 0 0 0 0 0 0 0.25 0"/>
<feBlend mode="normal" in2="BackgroundImageFix" result="effect1_dropShadow_0_1"/>
<feBlend mode="normal" in="SourceGraphic" in2="effect1_dropShadow_0_1" result="shape"/>
</filter>
<filter id="filter11_d_0_1" x="516" y="111.34" width="50" height="25.3205" filterUnits="userSpaceOnUse" color-interpolation-filters="sRGB">
<feFlood flood-opacity="0" result="BackgroundImageFix"/>
<feColorMatrix in="SourceAlpha" type="matrix" values="0 0 0 0 0 0 0 0 0 0 0 0 0 0 0 0 0 0 127 0" result="hardAlpha"/>
<feOffset dy="4"/>
<feGaussianBlur stdDeviation="2"/>
<feComposite in2="hardAlpha" operator="out"/>
<feColorMatrix type="matrix" values="0 0 0 0 0 0 0 0 0 0 0 0 0 0 0 0 0 0 0.25 0"/>
<feBlend mode="normal" in2="BackgroundImageFix" result="effect1_dropShadow_0_1"/>
<feBlend mode="normal" in="SourceGraphic" in2="effect1_dropShadow_0_1" result="shape"/>
</filter>
<filter id="filter12_d_0_1" x="245.34" y="150" width="25.3205" height="50" filterUnits="userSpaceOnUse" color-interpolation-filters="sRGB">
<feFlood flood-opacity="0" result="BackgroundImageFix"/>
<feColorMatrix in="SourceAlpha" type="matrix" values="0 0 0 0 0 0 0 0 0 0 0 0 0 0 0 0 0 0 127 0" result="hardAlpha"/>
<feOffset dy="4"/>
<feGaussianBlur stdDeviation="2"/>
<feComposite in2="hardAlpha" operator="out"/>
<feColorMatrix type="matrix" values="0 0 0 0 0 0 0 0 0 0 0 0 0 0 0 0 0 0 0.25 0"/>
<feBlend mode="normal" in2="BackgroundImageFix" result="effect1_dropShadow_0_1"/>
<feBlend mode="normal" in="SourceGraphic" in2="effect1_dropShadow_0_1" result="shape"/>
</filter>
<filter id="filter13_d_0_1" x="438.34" y="150" width="25.3205" height="50" filterUnits="userSpaceOnUse" color-interpolation-filters="sRGB">
<feFlood flood-opacity="0" result="BackgroundImageFix"/>
<feColorMatrix in="SourceAlpha" type="matrix" values="0 0 0 0 0 0 0 0 0 0 0 0 0 0 0 0 0 0 127 0" result="hardAlpha"/>
<feOffset dy="4"/>
<feGaussianBlur stdDeviation="2"/>
<feComposite in2="hardAlpha" operator="out"/>
<feColorMatrix type="matrix" values="0 0 0 0 0 0 0 0 0 0 0 0 0 0 0 0 0 0 0.25 0"/>
<feBlend mode="normal" in2="BackgroundImageFix" result="effect1_dropShadow_0_1"/>
<feBlend mode="normal" in="SourceGraphic" in2="effect1_dropShadow_0_1" result="shape"/>
</filter>
<filter id="filter14_d_0_1" x="359" y="192" width="184" height="46" filterUnits="userSpaceOnUse" color-interpolation-filters="sRGB">
<feFlood flood-opacity="0" result="BackgroundImageFix"/>
<feColorMatrix in="SourceAlpha" type="matrix" values="0 0 0 0 0 0 0 0 0 0 0 0 0 0 0 0 0 0 127 0" result="hardAlpha"/>
<feOffset dy="4"/>
<feGaussianBlur stdDeviation="2"/>
<feComposite in2="hardAlpha" operator="out"/>
<feColorMatrix type="matrix" values="0 0 0 0 0 0 0 0 0 0 0 0 0 0 0 0 0 0 0.25 0"/>
<feBlend mode="normal" in2="BackgroundImageFix" result="effect1_dropShadow_0_1"/>
<feBlend mode="normal" in="SourceGraphic" in2="effect1_dropShadow_0_1" result="shape"/>
</filter>
<clipPath id="clip0_0_1">
<rect width="699" height="257" fill="white"/>
</clipPath>
</defs>
</svg>
